<?xml version="1.0" encoding="UTF-8" standalone="no"?>
<svg
   xmlns:dc="http://purl.org/dc/elements/1.1/"
   xmlns:cc="http://creativecommons.org/ns#"
   xmlns:rdf="http://www.w3.org/1999/02/22-rdf-syntax-ns#"
   xmlns:svg="http://www.w3.org/2000/svg"
   xmlns="http://www.w3.org/2000/svg"
   viewBox="0 0 356.75201 235.03867"
   height="235.03867"
   width="356.75201"
   xml:space="preserve"
   id="svg2"
   version="1.1"><metadata
     id="metadata8"><rdf:RDF><cc:Work
         rdf:about=""><dc:format>image/svg+xml</dc:format><dc:type
           rdf:resource="http://purl.org/dc/dcmitype/StillImage" /></cc:Work></rdf:RDF></metadata><defs
     id="defs6"><clipPath
       id="clipPath18"
       clipPathUnits="userSpaceOnUse"><path
         id="path16"
         d="M 0,176.279 H 267.564 V 0 H 0 Z" /></clipPath><linearGradient
       id="linearGradient52"
       spreadMethod="pad"
       gradientTransform="matrix(-38.88557,0,0,38.88557,75.649315,49.477844)"
       gradientUnits="userSpaceOnUse"
       y2="0"
       x2="1"
       y1="0"
       x1="0"><stop
         id="stop46"
         offset="0"
         style="stop-opacity:1;stop-color:#fee027" /><stop
         id="stop48"
         offset="0.73768073"
         style="stop-opacity:1;stop-color:#f99e33" /><stop
         id="stop50"
         offset="1"
         style="stop-opacity:1;stop-color:#f99e33" /></linearGradient><linearGradient
       id="linearGradient72"
       spreadMethod="pad"
       gradientTransform="matrix(-36.573635,-36.573635,-36.573635,36.573635,65.557999,45.790142)"
       gradientUnits="userSpaceOnUse"
       y2="0"
       x2="1"
       y1="0"
       x1="0"><stop
         id="stop68"
         offset="0"
         style="stop-opacity:1;stop-color:#f05052" /><stop
         id="stop70"
         offset="1"
         style="stop-opacity:1;stop-color:#c83273" /></linearGradient><linearGradient
       id="linearGradient94"
       spreadMethod="pad"
       gradientTransform="matrix(29.861425,-29.861425,-29.861425,-29.861425,28.821411,89.903435)"
       gradientUnits="userSpaceOnUse"
       y2="0"
       x2="1"
       y1="0"
       x1="0"><stop
         id="stop88"
         offset="0"
         style="stop-opacity:1;stop-color:#39a275" /><stop
         id="stop90"
         offset="0.73696312"
         style="stop-opacity:1;stop-color:#79c36f" /><stop
         id="stop92"
         offset="1"
         style="stop-opacity:1;stop-color:#79c36f" /></linearGradient><clipPath
       id="clipPath104"
       clipPathUnits="userSpaceOnUse"><path
         id="path102"
         d="M 0,176.279 H 267.564 V 0 H 0 Z" /></clipPath><clipPath
       id="clipPath138"
       clipPathUnits="userSpaceOnUse"><path
         id="path136"
         d="M 0,176.279 H 267.564 V 0 H 0 Z" /></clipPath></defs><g
     transform="matrix(1.3333333,0,0,-1.3333333,0,235.03867)"
     id="g10"><g
       id="g12"><g
         clip-path="url(#clipPath18)"
         id="g14"><g
           transform="translate(234.8848,18.4452)"
           id="g20"><path
             id="path22"
             style="fill:#242628;fill-opacity:1;fill-rule:nonzero;stroke:none"
             d="m 0,0 h -201.236 c -4.077,0 -7.382,3.305 -7.382,7.382 v 47.673 c 0,4.077 3.305,7.383 7.382,7.383 H 0 c 4.077,0 7.382,-3.306 7.382,-7.383 V 7.382 C 7.382,3.305 4.077,0 0,0" /></g><g
           transform="translate(33.6484,80.0751)"
           id="g24"><path
             id="path26"
             style="fill:#aaacae;fill-opacity:1;fill-rule:nonzero;stroke:none"
             d="m 0,0 c -3.625,0 -6.574,-2.949 -6.574,-6.575 v -47.673 c 0,-3.625 2.949,-6.574 6.574,-6.574 h 201.236 c 3.625,0 6.575,2.949 6.575,6.574 v 47.673 c 0,3.626 -2.95,6.575 -6.575,6.575 z M 201.236,-62.438 H 0 c -4.516,0 -8.189,3.674 -8.189,8.19 v 47.673 c 0,4.516 3.673,8.19 8.189,8.19 h 201.236 c 4.516,0 8.19,-3.674 8.19,-8.19 v -47.673 c 0,-4.516 -3.674,-8.19 -8.19,-8.19" /></g><path
           id="path28"
           style="fill:#ffffff;fill-opacity:1;fill-rule:nonzero;stroke:none"
           d="m 197.641,33.394 h 3.001 v 20.107 h -3.001 z m 27.032,12.865 -3.441,-8.718 h -0.103 l -3.569,8.718 h -3.234 l 5.355,-12.185 -3.053,-6.777 h 3.13 l 8.252,18.962 z m -17.022,-10.58 c -0.982,0 -2.353,0.491 -2.353,1.707 0,1.551 1.707,2.147 3.181,2.147 1.32,0 1.941,-0.285 2.743,-0.673 -0.234,-1.862 -1.837,-3.181 -3.571,-3.181 m 0.363,11.019 c -2.173,0 -4.423,-0.957 -5.355,-3.078 l 2.664,-1.112 c 0.57,1.112 1.63,1.474 2.742,1.474 1.553,0 3.13,-0.931 3.157,-2.587 v -0.207 c -0.543,0.311 -1.707,0.777 -3.13,0.777 -2.871,0 -5.795,-1.578 -5.795,-4.528 0,-2.69 2.354,-4.423 4.993,-4.423 2.018,0 3.13,0.906 3.828,1.966 h 0.104 v -1.552 h 2.897 v 7.709 c 0,3.569 -2.665,5.561 -6.105,5.561 M 189.467,43.81 h -4.269 v 6.893 h 4.269 c 2.244,0 3.517,-1.858 3.517,-3.446 0,-1.559 -1.273,-3.447 -3.517,-3.447 m -0.077,9.692 h -7.192 V 33.394 h 3 v 7.619 h 4.192 c 3.326,0 6.595,2.408 6.595,6.244 0,3.836 -3.269,6.245 -6.595,6.245 M 150.176,35.675 c -2.073,0 -3.81,1.736 -3.81,4.12 0,2.409 1.737,4.172 3.81,4.172 2.047,0 3.653,-1.763 3.653,-4.172 0,-2.384 -1.606,-4.12 -3.653,-4.12 m 3.445,9.458 h -0.103 c -0.674,0.802 -1.969,1.528 -3.602,1.528 -3.42,0 -6.556,-3.006 -6.556,-6.866 0,-3.835 3.136,-6.816 6.556,-6.816 1.633,0 2.928,0.726 3.602,1.555 h 0.103 V 33.55 c 0,-2.617 -1.398,-4.017 -3.653,-4.017 -1.84,0 -2.98,1.322 -3.447,2.437 l -2.617,-1.089 c 0.752,-1.814 2.747,-4.042 6.064,-4.042 3.524,0 6.504,2.072 6.504,7.126 v 12.282 h -2.851 z m 4.924,-11.739 h 3.006 v 20.107 h -3.006 z m 7.436,6.633 c -0.078,2.644 2.047,3.991 3.576,3.991 1.192,0 2.203,-0.596 2.54,-1.451 z m 9.329,2.281 c -0.571,1.529 -2.306,4.353 -5.857,4.353 -3.523,0 -6.451,-2.772 -6.451,-6.841 0,-3.835 2.901,-6.841 6.788,-6.841 3.136,0 4.949,1.918 5.701,3.033 l -2.332,1.554 c -0.777,-1.14 -1.84,-1.891 -3.369,-1.891 -1.528,0 -2.617,0.699 -3.316,2.073 l 9.146,3.782 z m -72.873,2.254 V 41.66 h 6.944 c -0.207,-1.633 -0.751,-2.824 -1.581,-3.653 -1.01,-1.011 -2.591,-2.125 -5.363,-2.125 -4.276,0 -7.618,3.446 -7.618,7.721 0,4.276 3.342,7.722 7.618,7.722 2.306,0 3.99,-0.907 5.234,-2.073 l 2.047,2.048 c -1.736,1.658 -4.042,2.927 -7.281,2.927 -5.856,0 -10.78,-4.767 -10.78,-10.624 0,-5.855 4.924,-10.624 10.78,-10.624 3.161,0 5.545,1.037 7.411,2.981 1.917,1.917 2.513,4.612 2.513,6.788 0,0.674 -0.052,1.296 -0.156,1.814 z m 17.818,-8.887 c -2.072,0 -3.86,1.71 -3.86,4.145 0,2.462 1.788,4.147 3.86,4.147 2.074,0 3.861,-1.685 3.861,-4.147 0,-2.435 -1.787,-4.145 -3.861,-4.145 m 0,10.986 c -3.783,0 -6.866,-2.876 -6.866,-6.841 0,-3.938 3.083,-6.841 6.866,-6.841 3.784,0 6.867,2.903 6.867,6.841 0,3.965 -3.083,6.841 -6.867,6.841 m 14.98,-10.986 c -2.073,0 -3.861,1.71 -3.861,4.145 0,2.462 1.788,4.147 3.861,4.147 2.073,0 3.861,-1.685 3.861,-4.147 0,-2.435 -1.788,-4.145 -3.861,-4.145 m 0,10.986 c -3.783,0 -6.867,-2.876 -6.867,-6.841 0,-3.938 3.084,-6.841 6.867,-6.841 3.784,0 6.867,2.903 6.867,6.841 0,3.965 -3.083,6.841 -6.867,6.841" /><g
           transform="translate(42.4302,69.5067)"
           id="g30"><path
             id="path32"
             style="fill:#63caf4;fill-opacity:1;fill-rule:nonzero;stroke:none"
             d="m 0,0 c -0.468,-0.494 -0.744,-1.262 -0.744,-2.258 v -35.541 c 0,-0.996 0.276,-1.764 0.744,-2.258 l 0.119,-0.116 19.909,19.909 v 0.236 0.235 L 0.119,0.116 Z" /></g></g></g><g
       id="g34"><g
         id="g36"><g
           id="g42"><g
             id="g44"><path
               id="path54"
               style="fill:url(#linearGradient52);stroke:none"
               d="m 62.458,49.714 v -0.236 -0.235 l 6.637,-6.639 0.151,0.087 7.863,4.467 c 2.246,1.276 2.246,3.364 0,4.641 v 0 l -7.862,4.467 -0.15,0.086 z" /></g></g></g></g><g
       id="g56"><g
         id="g58"><g
           id="g64"><g
             id="g66"><path
               id="path74"
               style="fill:url(#linearGradient72);stroke:none"
               d="m 42.43,29.45 c 0.741,-0.784 1.963,-0.88 3.34,-0.098 v 0 l 23.476,13.339 -6.788,6.787 z" /></g></g></g></g><g
       id="g76"><g
         id="g78"><g
           id="g84"><g
             id="g86"><path
               id="path96"
               style="fill:url(#linearGradient94);stroke:none"
               d="M 42.43,69.507 62.458,49.478 69.247,56.266 45.77,69.605 c -0.645,0.367 -1.257,0.541 -1.801,0.541 v 0 c -0.616,0 -1.145,-0.223 -1.539,-0.639" /></g></g></g></g><g
       id="g98"><g
         clip-path="url(#clipPath104)"
         id="g100"><g
           transform="translate(99.3843,68.37)"
           id="g106"><path
             id="path108"
             style="fill:#ffffff;fill-opacity:1;fill-rule:nonzero;stroke:none"
             d="m 0,0 c -0.604,0.535 -1.4,0.879 -2.279,0.879 -1.978,0 -3.502,-1.634 -3.502,-3.64 0,-2.005 1.524,-3.625 3.502,-3.625 1.702,0 2.938,0.989 3.021,2.555 H -1.95 v 1.112 h 4.147 c 0,-3.324 -1.771,-4.889 -4.476,-4.889 -2.692,0 -4.78,2.17 -4.78,4.847 0,2.693 2.088,4.863 4.78,4.863 1.249,0 2.375,-0.482 3.199,-1.25 z" /></g><g
           transform="translate(108.9307,70.3612)"
           id="g110"><path
             id="path112"
             style="fill:#ffffff;fill-opacity:1;fill-rule:nonzero;stroke:none"
             d="m 0,0 v -1.194 h -4.326 v -3.022 h 3.777 v -1.195 h -3.777 v -2.857 h 4.463 v -1.194 h -5.74 V 0 Z" /></g><g
           transform="translate(117.2124,70.3612)"
           id="g114"><path
             id="path116"
             style="fill:#ffffff;fill-opacity:1;fill-rule:nonzero;stroke:none"
             d="m 0,0 v -1.208 h -2.87 v -8.254 h -1.291 v 8.254 h -2.87 V 0 Z" /></g><path
           id="path118"
           style="fill:#ffffff;fill-opacity:1;fill-rule:nonzero;stroke:none"
           d="m 123.339,60.899 h -1.277 v 9.462 h 1.277 z" /><g
           transform="translate(132.0464,70.3612)"
           id="g120"><path
             id="path122"
             style="fill:#ffffff;fill-opacity:1;fill-rule:nonzero;stroke:none"
             d="m 0,0 v -1.208 h -2.87 v -8.254 h -1.291 v 8.254 h -2.87 V 0 Z" /></g><g
           transform="translate(141.0576,61.9979)"
           id="g124"><path
             id="path126"
             style="fill:#ffffff;fill-opacity:1;fill-rule:nonzero;stroke:none"
             d="M 0,0 C 1.991,0 3.516,1.606 3.516,3.611 3.516,5.617 1.991,7.237 0,7.237 -1.978,7.237 -3.502,5.617 -3.502,3.611 -3.502,1.606 -1.978,0 0,0 m 0,8.474 c 2.705,0 4.807,-2.17 4.807,-4.863 0,-2.677 -2.102,-4.847 -4.807,-4.847 -2.691,0 -4.779,2.17 -4.779,4.847 0,2.693 2.088,4.863 4.779,4.863" /></g><g
           transform="translate(153.4189,60.8993)"
           id="g128"><path
             id="path130"
             style="fill:#ffffff;fill-opacity:1;fill-rule:nonzero;stroke:none"
             d="M 0,0 -4.312,7.127 V 0 h -1.277 v 9.462 h 1.264 L -0.055,2.39 V 9.462 H 1.223 L 1.223,0 Z" /></g></g></g><g
       id="g132"><g
         clip-path="url(#clipPath138)"
         id="g134"><g
           transform="translate(234.8848,95.2353)"
           id="g140"><path
             id="path142"
             style="fill:#242628;fill-opacity:1;fill-rule:nonzero;stroke:none"
             d="m 0,0 h -201.236 c -4.077,0 -7.382,3.305 -7.382,7.382 v 47.674 c 0,4.076 3.305,7.381 7.382,7.381 H 0 c 4.077,0 7.382,-3.305 7.382,-7.381 V 7.382 C 7.382,3.305 4.077,0 0,0" /></g><g
           transform="translate(33.6484,156.8651)"
           id="g144"><path
             id="path146"
             style="fill:#aaacae;fill-opacity:1;fill-rule:nonzero;stroke:none"
             d="m 0,0 c -3.625,0 -6.574,-2.949 -6.574,-6.575 v -47.673 c 0,-3.625 2.949,-6.574 6.574,-6.574 h 201.236 c 3.625,0 6.575,2.949 6.575,6.574 v 47.673 c 0,3.626 -2.95,6.575 -6.575,6.575 z M 201.236,-62.437 H 0 c -4.516,0 -8.189,3.673 -8.189,8.189 v 47.673 c 0,4.516 3.673,8.19 8.189,8.19 h 201.236 c 4.516,0 8.19,-3.674 8.19,-8.19 v -47.673 c 0,-4.516 -3.674,-8.189 -8.19,-8.189" /></g><g
           transform="translate(100.9204,141.7172)"
           id="g148"><path
             id="path150"
             style="fill:#ffffff;fill-opacity:1;fill-rule:nonzero;stroke:none"
             d="m 0,0 -0.828,2.591 c -0.202,0.64 -0.374,1.358 -0.53,1.967 H -1.39 C -1.545,3.949 -1.702,3.216 -1.889,2.591 L -2.701,0 Z m -3.013,-1.452 -0.905,-2.981 h -1.983 l 3.372,10.521 h 2.451 L 3.34,-4.433 H 1.28 l -0.952,2.981 z" /></g><g
           transform="translate(107.1304,144.8861)"
           id="g152"><path
             id="path154"
             style="fill:#ffffff;fill-opacity:1;fill-rule:nonzero;stroke:none"
             d="m 0,0 1.233,-3.856 c 0.219,-0.671 0.374,-1.28 0.515,-1.904 h 0.047 c 0.141,0.624 0.312,1.218 0.515,1.904 L 3.527,0 H 5.541 L 2.638,-7.602 H 0.749 L -2.076,0 Z" /></g><g
           transform="translate(118.4609,140.9994)"
           id="g156"><path
             id="path158"
             style="fill:#ffffff;fill-opacity:1;fill-rule:nonzero;stroke:none"
             d="m 0,0 c -1.358,0.016 -2.654,-0.266 -2.654,-1.421 0,-0.749 0.484,-1.092 1.093,-1.092 0.78,0 1.327,0.499 1.514,1.046 C 0,-1.327 0,-1.187 0,-1.046 Z m 1.873,-1.889 c 0,-0.687 0.031,-1.358 0.125,-1.826 H 0.265 l -0.14,0.842 H 0.078 c -0.453,-0.592 -1.249,-1.014 -2.248,-1.014 -1.53,0 -2.388,1.108 -2.388,2.263 0,1.905 1.702,2.888 4.511,2.873 v 0.125 c 0,0.499 -0.203,1.326 -1.545,1.326 -0.749,0 -1.53,-0.234 -2.045,-0.562 l -0.375,1.249 c 0.562,0.343 1.546,0.671 2.747,0.671 2.436,0 3.138,-1.545 3.138,-3.215 z" /></g><path
           id="path160"
           style="fill:#ffffff;fill-opacity:1;fill-rule:nonzero;stroke:none"
           d="m 123.048,144.886 h 1.92 v -7.602 h -1.92 z m 0.952,1.093 c -0.64,0 -1.062,0.468 -1.062,1.03 0,0.593 0.437,1.046 1.078,1.046 0.655,0 1.061,-0.453 1.077,-1.046 0,-0.562 -0.422,-1.03 -1.077,-1.03 z" /><path
           id="path162"
           style="fill:#ffffff;fill-opacity:1;fill-rule:nonzero;stroke:none"
           d="m 127.729,148.383 h 1.92 v -11.099 h -1.92 z" /><g
           transform="translate(136.4541,140.9994)"
           id="g164"><path
             id="path166"
             style="fill:#ffffff;fill-opacity:1;fill-rule:nonzero;stroke:none"
             d="m 0,0 c -1.357,0.016 -2.654,-0.266 -2.654,-1.421 0,-0.749 0.484,-1.092 1.093,-1.092 0.781,0 1.328,0.499 1.514,1.046 C 0,-1.327 0,-1.187 0,-1.046 Z m 1.874,-1.889 c 0,-0.687 0.031,-1.358 0.124,-1.826 H 0.266 L 0.125,-2.873 H 0.078 c -0.452,-0.592 -1.248,-1.014 -2.248,-1.014 -1.53,0 -2.388,1.108 -2.388,2.263 0,1.905 1.702,2.888 4.511,2.873 v 0.125 c 0,0.499 -0.202,1.326 -1.545,1.326 -0.749,0 -1.53,-0.234 -2.045,-0.562 l -0.375,1.249 c 0.562,0.343 1.546,0.671 2.748,0.671 2.435,0 3.138,-1.545 3.138,-3.215 z" /></g><g
           transform="translate(142.9619,140.4218)"
           id="g168"><path
             id="path170"
             style="fill:#ffffff;fill-opacity:1;fill-rule:nonzero;stroke:none"
             d="m 0,0 c 0,-0.156 0.016,-0.312 0.047,-0.453 0.203,-0.78 0.874,-1.342 1.701,-1.342 1.202,0 1.936,0.952 1.936,2.497 0,1.343 -0.64,2.435 -1.92,2.435 C 0.983,3.137 0.266,2.576 0.062,1.732 0.031,1.592 0,1.42 0,1.233 Z M -1.92,7.961 H 0 V 3.418 h 0.031 c 0.469,0.734 1.296,1.218 2.436,1.218 1.857,0 3.183,-1.545 3.168,-3.856 0,-2.731 -1.733,-4.09 -3.449,-4.09 -0.984,0 -1.858,0.375 -2.405,1.312 H -0.25 l -0.094,-1.14 h -1.638 c 0.031,0.515 0.062,1.358 0.062,2.123 z" /></g><path
           id="path172"
           style="fill:#ffffff;fill-opacity:1;fill-rule:nonzero;stroke:none"
           d="m 150.857,148.383 h 1.92 v -11.099 h -1.92 z" /><g
           transform="translate(160.2529,141.8891)"
           id="g174"><path
             id="path176"
             style="fill:#ffffff;fill-opacity:1;fill-rule:nonzero;stroke:none"
             d="M 0,0 C 0.016,0.702 -0.296,1.857 -1.576,1.857 -2.763,1.857 -3.262,0.78 -3.34,0 Z m -3.34,-1.343 c 0.047,-1.373 1.123,-1.967 2.341,-1.967 0.89,0 1.515,0.141 2.107,0.344 L 1.39,-4.277 c -0.656,-0.281 -1.562,-0.484 -2.654,-0.484 -2.466,0 -3.919,1.514 -3.919,3.84 0,2.107 1.281,4.089 3.716,4.089 2.466,0 3.278,-2.029 3.278,-3.699 0,-0.359 -0.032,-0.64 -0.062,-0.812 z" /></g><g
           transform="translate(171.5986,138.5018)"
           id="g178"><path
             id="path180"
             style="fill:#ffffff;fill-opacity:1;fill-rule:nonzero;stroke:none"
             d="M 0,0 C 1.092,0 1.857,1.061 1.857,2.606 1.857,3.793 1.326,5.167 0.016,5.167 -1.343,5.167 -1.89,3.84 -1.89,2.575 -1.89,1.108 -1.155,0 -0.016,0 Z m -0.062,-1.39 c -2.139,0 -3.81,1.468 -3.81,3.918 0,2.498 1.64,4.028 3.934,4.028 2.263,0 3.778,-1.592 3.778,-3.903 0,-2.794 -1.967,-4.043 -3.887,-4.043 z" /></g><g
           transform="translate(177.6992,142.6225)"
           id="g182"><path
             id="path184"
             style="fill:#ffffff;fill-opacity:1;fill-rule:nonzero;stroke:none"
             d="m 0,0 c 0,0.875 -0.031,1.608 -0.062,2.264 h 1.669 l 0.094,-1.14 h 0.047 c 0.344,0.593 1.171,1.311 2.436,1.311 1.326,0 2.7,-0.858 2.7,-3.262 v -4.511 h -1.92 v 4.292 C 4.964,0.047 4.558,0.875 3.512,0.875 2.747,0.875 2.217,0.328 2.014,-0.25 1.951,-0.406 1.92,-0.64 1.92,-0.858 v -4.48 H 0 Z" /></g><g
           transform="translate(193.4297,146.8373)"
           id="g186"><path
             id="path188"
             style="fill:#ffffff;fill-opacity:1;fill-rule:nonzero;stroke:none"
             d="M 0,0 V -1.951 H 1.826 V -3.387 H 0 v -3.341 c 0,-0.937 0.25,-1.405 0.983,-1.405 0.343,0 0.531,0.016 0.749,0.078 l 0.032,-1.451 c -0.282,-0.11 -0.796,-0.203 -1.39,-0.203 -0.718,0 -1.295,0.234 -1.654,0.624 -0.422,0.437 -0.609,1.14 -0.609,2.139 v 3.559 h -1.077 v 1.436 h 1.077 v 1.42 z" /></g><g
           transform="translate(197.3936,148.3827)"
           id="g190"><path
             id="path192"
             style="fill:#ffffff;fill-opacity:1;fill-rule:nonzero;stroke:none"
             d="m 0,0 h 1.92 v -4.527 h 0.031 c 0.235,0.359 0.562,0.656 0.952,0.859 0.391,0.218 0.843,0.343 1.327,0.343 1.295,0 2.654,-0.859 2.654,-3.294 v -4.48 h -1.92 v 4.277 c 0,1.093 -0.406,1.936 -1.468,1.936 -0.749,0 -1.279,-0.499 -1.498,-1.077 C 1.936,-6.135 1.92,-6.338 1.92,-6.541 v -4.558 H 0 Z" /></g><g
           transform="translate(211.7041,141.8891)"
           id="g194"><path
             id="path196"
             style="fill:#ffffff;fill-opacity:1;fill-rule:nonzero;stroke:none"
             d="M 0,0 C 0.016,0.702 -0.296,1.857 -1.576,1.857 -2.763,1.857 -3.262,0.78 -3.34,0 Z m -3.34,-1.343 c 0.047,-1.373 1.123,-1.967 2.341,-1.967 0.89,0 1.515,0.141 2.107,0.344 L 1.39,-4.277 c -0.656,-0.281 -1.562,-0.484 -2.654,-0.484 -2.466,0 -3.919,1.514 -3.919,3.84 0,2.107 1.281,4.089 3.716,4.089 2.466,0 3.278,-2.029 3.278,-3.699 0,-0.359 -0.032,-0.64 -0.062,-0.812 z" /></g><g
           transform="translate(74.0249,127.0795)"
           id="g198"><path
             id="path200"
             style="fill:#ffffff;fill-opacity:1;fill-rule:nonzero;stroke:none"
             d="m 0,0 c -0.049,5.206 4.264,7.74 4.46,7.857 -2.439,3.563 -6.226,4.048 -7.555,4.086 -3.177,0.334 -6.261,-1.904 -7.877,-1.904 -1.651,0 -4.149,1.87 -6.833,1.816 -3.458,-0.055 -6.694,-2.057 -8.466,-5.164 -3.66,-6.338 -0.93,-15.652 2.576,-20.778 1.756,-2.508 3.806,-5.31 6.489,-5.21 2.624,0.109 3.604,1.672 6.774,1.672 3.141,0 4.062,-1.672 6.799,-1.609 2.818,0.046 4.59,2.52 6.282,5.053 2.031,2.875 2.844,5.707 2.876,5.853 C 5.459,-8.306 0.054,-6.244 0,0" /></g><g
           transform="translate(68.8535,142.3925)"
           id="g202"><path
             id="path204"
             style="fill:#ffffff;fill-opacity:1;fill-rule:nonzero;stroke:none"
             d="M 0,0 C 1.412,1.766 2.381,4.17 2.108,6.607 0.065,6.516 -2.489,5.194 -3.96,3.466 -5.263,1.944 -6.429,-0.552 -6.127,-2.897 -3.829,-3.067 -1.474,-1.738 0,0" /></g><g
           transform="translate(105.7056,117.1371)"
           id="g206"><path
             id="path208"
             style="fill:#ffffff;fill-opacity:1;fill-rule:nonzero;stroke:none"
             d="m 0,0 -1.811,5.598 c -0.194,0.57 -0.553,1.918 -1.083,4.037 H -2.957 C -3.17,8.722 -3.51,7.377 -3.977,5.598 L -5.758,0 Z M 6.264,-8.941 H 2.607 L 0.603,-2.642 H -6.36 l -1.911,-6.299 h -3.561 l 6.904,21.438 h 4.259 z" /></g><g
           transform="translate(126.2197,115.9911)"
           id="g210"><path
             id="path212"
             style="fill:#ffffff;fill-opacity:1;fill-rule:nonzero;stroke:none"
             d="m 0,0 c 0,1.505 -0.34,2.745 -1.018,3.722 -0.743,1.016 -1.74,1.527 -2.988,1.527 -0.849,0 -1.621,-0.285 -2.306,-0.843 C -7.001,3.84 -7.453,3.105 -7.665,2.192 -7.771,1.767 -7.822,1.42 -7.822,1.146 v -2.579 c 0,-1.124 0.343,-2.072 1.03,-2.845 0.691,-0.777 1.587,-1.16 2.689,-1.16 1.294,0 2.302,0.495 3.02,1.493 C -0.359,-2.947 0,-1.634 0,0 m 3.499,0.126 c 0,-2.629 -0.71,-4.708 -2.132,-6.234 -1.272,-1.358 -2.853,-2.035 -4.737,-2.035 -2.037,0 -3.501,0.734 -4.391,2.195 H -7.822 V -14.09 H -11.26 V 2.576 c 0,1.653 -0.041,3.347 -0.126,5.088 h 3.02 l 0.192,-2.45 h 0.065 c 1.144,1.846 2.884,2.768 5.215,2.768 1.821,0 3.346,-0.721 4.564,-2.164 1.219,-1.444 1.829,-3.34 1.829,-5.692" /></g><g
           transform="translate(144,115.9911)"
           id="g214"><path
             id="path216"
             style="fill:#ffffff;fill-opacity:1;fill-rule:nonzero;stroke:none"
             d="M 0,0 C 0,1.505 -0.34,2.745 -1.021,3.722 -1.763,4.738 -2.758,5.249 -4.009,5.249 -4.858,5.249 -5.628,4.964 -6.314,4.406 -7.004,3.84 -7.453,3.105 -7.664,2.192 -7.773,1.767 -7.824,1.42 -7.824,1.146 v -2.579 c 0,-1.124 0.342,-2.072 1.031,-2.845 0.689,-0.777 1.583,-1.16 2.69,-1.16 1.291,0 2.301,0.495 3.02,1.493 C -0.364,-2.947 0,-1.634 0,0 m 3.495,0.126 c 0,-2.629 -0.708,-4.708 -2.131,-6.234 -1.272,-1.358 -2.849,-2.035 -4.738,-2.035 -2.035,0 -3.496,0.734 -4.388,2.195 h -0.062 v -8.142 h -3.435 V 2.576 c 0,1.653 -0.045,3.347 -0.127,5.088 h 3.02 l 0.192,-2.45 h 0.066 c 1.14,1.846 2.879,2.768 5.213,2.768 1.822,0 3.344,-0.721 4.565,-2.164 1.219,-1.444 1.825,-3.34 1.825,-5.692" /></g><g
           transform="translate(167.376,114.2089)"
           id="g218"><path
             id="path220"
             style="fill:#ffffff;fill-opacity:1;fill-rule:nonzero;stroke:none"
             d="m 0,0 c 0,-1.823 -0.632,-3.306 -1.906,-4.453 -1.396,-1.252 -3.341,-1.876 -5.837,-1.876 -2.306,0 -4.157,0.445 -5.559,1.335 l 0.797,2.862 c 1.51,-0.912 3.163,-1.366 4.967,-1.366 1.294,0 2.302,0.291 3.024,0.873 0.719,0.586 1.078,1.367 1.078,2.343 0,0.869 -0.295,1.605 -0.888,2.198 -0.593,0.596 -1.583,1.147 -2.962,1.658 -3.753,1.403 -5.626,3.451 -5.626,6.149 0,1.762 0.654,3.207 1.971,4.331 1.313,1.126 3.063,1.691 5.248,1.691 1.952,0 3.574,-0.342 4.865,-1.018 l -0.858,-2.8 c -1.209,0.656 -2.575,0.986 -4.104,0.986 -1.209,0 -2.151,-0.296 -2.828,-0.891 -0.57,-0.529 -0.858,-1.178 -0.858,-1.94 0,-0.847 0.326,-1.549 0.984,-2.098 0.57,-0.509 1.61,-1.06 3.117,-1.655 C -3.53,5.585 -2.176,4.717 -1.304,3.722 -0.436,2.724 0,1.483 0,0" /></g><g
           transform="translate(178.7305,121.0795)"
           id="g222"><path
             id="path224"
             style="fill:#ffffff;fill-opacity:1;fill-rule:nonzero;stroke:none"
             d="m 0,0 h -3.785 v -7.506 c 0,-1.909 0.668,-2.863 2.006,-2.863 0.61,0 1.121,0.054 1.523,0.158 l 0.095,-2.607 c -0.675,-0.255 -1.568,-0.381 -2.67,-0.381 -1.357,0 -2.418,0.412 -3.181,1.238 -0.762,0.827 -1.145,2.218 -1.145,4.168 V 0 h -2.258 v 2.578 h 2.258 v 2.828 l 3.372,1.02 V 2.578 l 3.785,0 z" /></g><g
           transform="translate(192.2471,115.9428)"
           id="g226"><path
             id="path228"
             style="fill:#ffffff;fill-opacity:1;fill-rule:nonzero;stroke:none"
             d="m 0,0 c 0,1.425 -0.306,2.646 -0.923,3.667 -0.718,1.234 -1.748,1.851 -3.083,1.851 -1.381,0 -2.43,-0.617 -3.148,-1.851 -0.617,-1.021 -0.92,-2.264 -0.92,-3.733 0,-1.425 0.303,-2.646 0.92,-3.666 0.74,-1.233 1.779,-1.85 3.119,-1.85 1.311,0 2.341,0.626 3.081,1.882 C -0.317,-2.659 0,-1.426 0,0 m 3.563,0.111 c 0,-2.376 -0.676,-4.326 -2.034,-5.853 -1.423,-1.57 -3.31,-2.352 -5.661,-2.352 -2.272,0 -4.076,0.752 -5.424,2.258 -1.346,1.505 -2.019,3.403 -2.019,5.69 0,2.399 0.692,4.36 2.083,5.884 1.387,1.53 3.258,2.293 5.612,2.293 2.268,0 4.094,-0.754 5.472,-2.259 1.316,-1.466 1.971,-3.35 1.971,-5.661" /></g><g
           transform="translate(206.9727,120.6352)"
           id="g230"><path
             id="path232"
             style="fill:#ffffff;fill-opacity:1;fill-rule:nonzero;stroke:none"
             d="m 0,0 c -0.339,0.061 -0.698,0.094 -1.08,0.094 -1.206,0 -2.144,-0.458 -2.801,-1.369 -0.57,-0.806 -0.857,-1.824 -0.857,-3.052 v -8.111 h -3.433 l 0.029,10.59 c 0,1.782 -0.044,3.404 -0.126,4.868 h 2.991 L -5.15,0.061 h 0.091 c 0.363,1.017 0.937,1.835 1.719,2.449 0.763,0.551 1.593,0.828 2.484,0.828 0.315,0 0.604,-0.022 0.856,-0.061 z" /></g><g
           transform="translate(219.0576,117.5497)"
           id="g234"><path
             id="path236"
             style="fill:#ffffff;fill-opacity:1;fill-rule:nonzero;stroke:none"
             d="M 0,0 C 0.024,1.015 -0.198,1.896 -0.665,2.639 -1.26,3.593 -2.175,4.071 -3.403,4.071 -4.524,4.071 -5.437,3.603 -6.137,2.67 -6.71,1.927 -7.05,1.039 -7.151,0 Z m 3.275,-0.891 c 0,-0.617 -0.041,-1.134 -0.124,-1.559 H -7.151 c 0.039,-1.527 0.539,-2.695 1.493,-3.501 0.866,-0.721 1.993,-1.077 3.372,-1.077 1.521,0 2.913,0.242 4.166,0.73 l 0.539,-2.387 c -1.462,-0.635 -3.19,-0.956 -5.186,-0.956 -2.394,0 -4.278,0.707 -5.644,2.118 -1.365,1.408 -2.052,3.304 -2.052,5.678 0,2.33 0.636,4.272 1.911,5.821 1.332,1.654 3.137,2.479 5.404,2.479 2.226,0 3.916,-0.825 5.062,-2.479 0.907,-1.315 1.361,-2.937 1.361,-4.867" /></g></g></g></g></svg>